# xmcd
#
# Track frame offsets: 
#        150
#        14069
#        33278
#        51674
#        69509
#        86217
#        104272
#        120767
#        136544
#        151574
#        167380
#
# Disc length: 2424 seconds
#
# Revision: 0
# Processed by: cddbd v1.5.2PL0 Copyright (c) Steve Scherf et al.
# Submitted via: ExactAudioCopy v1.3
#
DISCID=7f09760b
DTITLE=Don Ray Band - On Top Of The Heap
DYEAR=2009
DGENRE=Country Blues, Roots Rock, Americana
TTITLE0=The High Road
TTITLE1=I Might Just Say Goodbye
TTITLE2=I Can't Find My Angel
TTITLE3=So Wicked
TTITLE4=Boom Chika Wah Wah
TTITLE5=Good Bad Boy
TTITLE6=Barbecue and Beans
TTITLE7=Wrapped Around a Finger
TTITLE8=Perfect Ten
TTITLE9=How Much of this is Love
TTITLE10=On Top of the Heap
EXTD=
EXTT0=
EXTT1=
EXTT2=
EXTT3=
EXTT4=
EXTT5=
EXTT6=
EXTT7=
EXTT8=
EXTT9=
EXTT10=
PLAYORDER=
